<svg xmlns="http://www.w3.org/2000/svg" width="36" height="54" viewBox="0 0 36 54">
  <defs>
    <style>
      .cls-1 {
        fill: #fff;
      }
    </style>
  </defs>
  <title>sand</title>
  <g id="Layer_2" data-name="Layer 2">
    <g id="Layer_1-2" data-name="Layer 1">
      <path class="cls-1" d="M1,9a1,1,0,0,1-.71-.29,1,1,0,0,1,0-1.42l7-7A1,1,0,0,1,8.71,1.71l-7,7A1,1,0,0,1,1,9ZM28.71,53.71l7-7a1,1,0,0,0-1.42-1.42l-7,7a1,1,0,0,0,0,1.42,1,1,0,0,0,1.42,0ZM21.54,6.88l5.17-5.17A1,1,0,1,0,25.29.29L20.12,5.46a1,1,0,0,0,0,1.42,1,1,0,0,0,.71.29A1,1,0,0,0,21.54,6.88ZM1.71,26.71,18.54,9.88a1,1,0,0,0-1.42-1.42L.29,25.29a1,1,0,0,0,0,1.42,1,1,0,0,0,1.42,0Zm0,27L22.54,32.88a1,1,0,0,0-1.42-1.42L.29,52.29a1,1,0,0,0,0,1.42,1,1,0,0,0,1.42,0ZM25.54,29.88,35.71,19.71a1,1,0,0,0-1.42-1.42L24.12,28.46a1,1,0,0,0,0,1.42,1,1,0,0,0,.71.29A1,1,0,0,0,25.54,29.88ZM17.71,46.71l18-18a1,1,0,0,0-1.42-1.42l-18,18a1,1,0,0,0,0,1.42,1,1,0,0,0,1.42,0Zm-7,7,4.17-4.17a1,1,0,1,0-1.42-1.42L9.29,52.29a1,1,0,0,0,0,1.42,1,1,0,0,0,1.42,0Zm-2.5-42.5,9.5-9.5A1,1,0,1,0,16.29.29l-9.5,9.5a1,1,0,0,0,0,1.42,1,1,0,0,0,1.42,0Zm-6.5,6.5,3.5-3.5a1,1,0,0,0-1.42-1.42l-3.5,3.5a1,1,0,0,0,0,1.42,1,1,0,0,0,1.42,0Zm13.17,4.82L35.71,1.71A1,1,0,1,0,34.29.29L13.47,21.12a1,1,0,0,0,0,1.41,1,1,0,0,0,1.41,0ZM1.71,35.71,11.88,25.53a1,1,0,0,0-1.41-1.41L.29,34.29a1,1,0,0,0,0,1.42,1,1,0,0,0,1.42,0ZM13,33.4,28.56,17.86a1,1,0,1,0-1.42-1.42L11.6,32a1,1,0,0,0,0,1.41,1,1,0,0,0,1.41,0ZM31.56,14.86l4.15-4.15a1,1,0,0,0-1.42-1.42l-4.15,4.15a1,1,0,0,0,0,1.42,1,1,0,0,0,1.42,0ZM1.71,44.71,10,36.4A1,1,0,0,0,10,35,1,1,0,0,0,8.6,35L.29,43.29a1,1,0,0,0,0,1.42,1,1,0,0,0,1.42,0Zm31.11-4.12,2.89-2.88a1,1,0,0,0-1.42-1.42l-2.88,2.89a1,1,0,0,0,0,1.41,1,1,0,0,0,1.41,0ZM19.71,53.71,29.82,43.59a1,1,0,0,0-1.41-1.41L18.29,52.29a1,1,0,0,0,0,1.42,1,1,0,0,0,1.42,0Z"/>
    </g>
  </g>
</svg>
