<svg xmlns="http://www.w3.org/2000/svg" width="36" height="54" viewBox="0 0 36 54">
  <defs>
    <style>
      .cls-1 {
        fill: #fff;
      }
    </style>
  </defs>
  <title>wood</title>
  <g id="Layer_2" data-name="Layer 2">
    <g id="Layer_1-2" data-name="Layer 1">
      <path class="cls-1" d="M18,0C8.06,0,0,4,0,9c0,4.8,7.53,8.72,17,9a0,0,0,0,0,0,0V29a1,1,0,0,0,2,0V18a0,0,0,0,0,0,0c6.56-.17,12.17-2.1,15-4.86V36a1,1,0,0,0,2,0V9C36,4,27.94,0,18,0Zm0,16C8.57,16,2,12.31,2,9S8.57,2,18,2,34,5.69,34,9,27.43,16,18,16Zm3-7c0,.55-1.34,1-3,1s-3-.45-3-1,1.34-1,3-1S21,8.45,21,9ZM18,4C11.37,4,6,6.24,6,9s5.37,5,12,5,12-2.24,12-5S24.63,4,18,4Zm0,8C11.44,12,8,9.77,8,9s3.44-3,10-3S28,8.23,28,9,24.56,12,18,12ZM36,44c0,5.7-7.74,10-18,10S0,49.7,0,44V18a1,1,0,0,1,2,0V44c0,2.58,2.33,4.83,6,6.28V43a1,1,0,0,1,2,0v8a29.1,29.1,0,0,0,7,1V36a1,1,0,0,1,2,0V52c8.49-.26,15-3.66,15-8a1,1,0,0,1,2,0ZM8,36V22a1,1,0,0,1,2,0V36a1,1,0,0,1-2,0ZM27,47a1,1,0,0,1-1-1V21a1,1,0,0,1,2,0V46A1,1,0,0,1,27,47Z"/>
    </g>
  </g>
</svg>
