<svg xmlns="http://www.w3.org/2000/svg" width="36" height="54" viewBox="0 0 36 54">
  <defs>
    <style>
      .cls-1 {
        fill: #fff;
      }
    </style>
  </defs>
  <title>wool</title>
  <g id="Layer_2" data-name="Layer 2">
    <g id="Layer_1-2" data-name="Layer 1">
      <path class="cls-1" d="M36,37a8,8,0,0,1-7.17,8A3,3,0,0,1,27,46.83,8,8,0,0,1,19,54H17a8,8,0,0,1-8-7.17A3,3,0,0,1,7.17,45,8,8,0,0,1,0,37a1,1,0,0,1,2,0,6,6,0,0,0,6,6,1,1,0,0,1,1,1,1,1,0,0,0,1,1,1,1,0,0,1,1,1,6,6,0,0,0,6,6h2a6,6,0,0,0,6-6,1,1,0,0,1,1-1,1,1,0,0,0,1-1,1,1,0,0,1,1-1,6,6,0,0,0,6-6,1,1,0,0,1,2,0ZM7.17,27A3,3,0,0,0,9,28.83,8,8,0,0,0,17,36a1,1,0,0,0,0-2,6,6,0,0,1-6-6,1,1,0,0,0-1-1,1,1,0,0,1-1-1,1,1,0,0,0-1-1,6,6,0,0,1-6-6V17a6,6,0,0,1,6-6,1,1,0,0,0,1-1,1,1,0,0,1,1-1,1,1,0,0,0,1-1,6,6,0,0,1,6-6h2a6,6,0,0,1,6,6,1,1,0,0,0,1,1,8,8,0,0,0-8,8,1,1,0,0,0,2,0,6,6,0,0,1,6-6h2a6,6,0,0,1,6,6,1,1,0,0,0,2,0,8,8,0,0,0-7.17-8A3,3,0,0,0,27,7.17,8,8,0,0,0,19,0H17A8,8,0,0,0,9,7.17,3,3,0,0,0,7.17,9,8,8,0,0,0,0,17v2A8,8,0,0,0,7.17,27Zm0,9A3,3,0,0,0,10,38a1,1,0,0,0,0-2,1,1,0,0,1-1-1,1,1,0,0,0-1-1,6,6,0,0,1-6-6,1,1,0,0,0-2,0A8,8,0,0,0,7.17,36ZM35,27a1,1,0,0,0-1,1,6,6,0,0,1-6,6,1,1,0,0,0-1,1,1,1,0,0,1-1,1,1,1,0,0,0-1,1,6,6,0,0,1-6,6,1,1,0,0,0,0,2,8,8,0,0,0,8-7.17A3,3,0,0,0,28.83,36,8,8,0,0,0,36,28,1,1,0,0,0,35,27ZM25,19a6,6,0,0,1-6,6,1,1,0,0,0-1,1,1,1,0,0,1-1,1,1,1,0,0,0,0,2,3,3,0,0,0,2.83-2A8,8,0,0,0,27,19a1,1,0,0,0-2,0ZM10,16a3,3,0,0,0-3,3,1,1,0,0,0,2,0,1,1,0,0,1,1-1,1,1,0,0,0,0-2Z"/>
    </g>
  </g>
</svg>
