<svg xmlns="http://www.w3.org/2000/svg" width="36" height="54" viewBox="0 0 36 54">
  <defs>
    <style>
      .cls-1 {
        fill: #fff;
      }
    </style>
  </defs>
  <title>grain</title>
  <g id="Layer_2" data-name="Layer 2">
    <g id="Layer_1-2" data-name="Layer 1">
      <path class="cls-1" d="M6,17.38,1.45,15.11a1,1,0,0,0-1.18.2A1,1,0,0,0,.13,16.5L6,26.63v.75L1.45,25.11a1,1,0,0,0-1.18.2A1,1,0,0,0,.13,26.5L6,36.63v.75L1.45,35.11a1,1,0,0,0-1.18.2A1,1,0,0,0,.13,36.5L6,46.63V54H8V10H6Zm-2.46,1L6,19.62v3Zm0,10L6,29.62v3Zm0,10L6,39.62v3ZM35.87,26.5a1,1,0,0,0-.14-1.19,1,1,0,0,0-1.18-.2L30,27.38v-.75L35.87,16.5a1,1,0,0,0-.14-1.19,1,1,0,0,0-1.18-.2L30,17.38V10H28V54h2V46.63L35.87,36.5a1,1,0,0,0-.14-1.19,1,1,0,0,0-1.18-.2L30,37.38v-.75Zm-3.41,1.89L30,32.64v-3Zm0-10L30,22.64v-3Zm0,20L30,42.64v-3ZM24.87,6.5a1,1,0,0,0-.14-1.19,1,1,0,0,0-1.18-.2L19,7.38V0H17V7.38L12.45,5.11a1,1,0,0,0-1.18.2,1,1,0,0,0-.14,1.19L17,16.63v.75l-4.55-2.27a1,1,0,0,0-1.18.2,1,1,0,0,0-.14,1.19L17,26.63v.75l-4.55-2.27a1,1,0,0,0-1.18.2,1,1,0,0,0-.14,1.19L17,36.63v.75l-4.55-2.27a1,1,0,0,0-1.18.2,1,1,0,0,0-.14,1.19L17,46.63V54h2V46.63L24.87,36.5a1,1,0,0,0-.14-1.19,1,1,0,0,0-1.18-.2L19,37.38v-.75L24.87,26.5a1,1,0,0,0-.14-1.19,1,1,0,0,0-1.18-.2L19,27.38v-.75L24.87,16.5a1,1,0,0,0-.14-1.19,1,1,0,0,0-1.18-.2L19,17.38v-.75ZM21.46,8.39,19,12.64v-3Zm-6.92,0L17,9.62v3Zm0,10L17,19.62v3Zm0,10L17,29.62v3Zm0,10L17,39.62v3Zm6.92,0L19,42.64v-3Zm0-10L19,32.64v-3Zm0-10L19,22.64v-3Z"/>
    </g>
  </g>
</svg>
